<?xml version="1.0" standalone="no"?>
<!DOCTYPE svg PUBLIC "-//W3C//DTD SVG 20010904//EN"
 "http://www.w3.org/TR/2001/REC-SVG-20010904/DTD/svg10.dtd">
<svg version="1.0" xmlns="http://www.w3.org/2000/svg"
 width="230.000000pt" height="66.000000pt" viewBox="0 0 230.000000 66.000000"
 preserveAspectRatio="xMidYMid meet">

<g transform="translate(0.000000,66.000000) scale(0.100000,-0.100000)"
fill="#000000" stroke="none">
<path d="M0 330 l0 -330 1150 0 1150 0 0 194 c0 185 -1 194 -20 199 -15 4 -20
14 -20 36 0 25 -6 34 -26 42 -35 13 -39 7 -19 -31 9 -17 15 -36 13 -42 -3 -7
-14 14 -27 45 -22 55 -24 56 -69 62 -26 4 -60 11 -77 15 -25 7 -19 8 32 9 55
1 62 3 56 18 -6 15 -2 14 20 -4 15 -11 44 -24 64 -28 21 -4 46 -14 56 -22 16
-15 17 -11 17 76 l0 91 -256 -1 -256 0 20 -22 c93 -101 126 -145 196 -270 15
-27 34 -51 42 -54 16 -6 21 -129 5 -135 -5 -1 -3 -12 5 -22 13 -19 14 -19 14
6 0 17 6 28 18 31 16 4 16 5 0 6 -24 1 -26 71 -3 71 8 0 15 7 15 15 0 19 10
19 83 -2 50 -14 60 -14 68 -2 7 11 9 11 9 -3 0 -10 -7 -18 -15 -18 -9 0 -12
-6 -9 -15 4 -8 12 -15 20 -15 16 0 19 -16 4 -25 -6 -3 -10 -17 -10 -31 0 -13
-9 -33 -19 -43 -14 -14 -16 -21 -8 -25 7 -2 -28 -5 -76 -5 -49 -1 -86 2 -84 7
3 4 -9 7 -26 7 -28 0 -32 4 -39 41 -14 69 -53 92 -145 86 -27 -2 -53 -48 -53
-92 l0 -30 -437 -1 c-277 0 -431 -4 -418 -10 13 -6 -6 -7 -55 -3 -41 4 -78 8
-82 11 -5 2 -8 18 -8 34 0 47 -47 89 -100 89 -48 0 -90 -34 -90 -75 0 -37 -26
-31 -40 10 -21 62 -94 83 -156 44 -30 -18 -34 -25 -34 -65 0 -25 -4 -43 -9
-40 -12 8 -1 99 13 109 8 6 7 10 -1 14 -7 2 -13 19 -14 36 0 18 -3 25 -6 17
-2 -8 -7 -22 -10 -30 -3 -8 -5 -23 -4 -32 2 -12 -5 -18 -18 -18 -15 0 -19 -5
-15 -17 5 -15 3 -15 -10 1 -18 23 -20 36 -6 36 6 0 10 9 10 19 0 11 7 27 16
36 13 12 13 16 3 14 -23 -5 -58 11 -53 24 3 9 -9 13 -37 14 -23 1 -44 5 -47 8
-10 9 19 24 37 19 9 -2 1 3 -17 11 -27 13 -31 19 -22 30 9 10 7 16 -7 23 -17
10 -17 11 2 33 11 12 51 42 88 66 77 50 128 58 191 28 39 -19 48 -30 15 -20
-33 11 -145 14 -160 4 -11 -7 -10 -9 6 -10 14 0 12 -3 -9 -9 -16 -5 -33 -7
-38 -4 -4 3 -8 0 -8 -5 0 -6 -6 -11 -14 -11 -8 0 -17 -9 -21 -19 -3 -11 -14
-22 -23 -24 -16 -4 -16 -5 0 -6 9 0 20 4 23 9 8 14 72 13 81 -1 3 -6 1 -22 -6
-35 -11 -19 -11 -26 0 -39 11 -13 10 -15 -6 -10 -10 4 -6 -1 10 -10 16 -10 50
-37 75 -61 49 -47 61 -53 61 -29 0 8 7 15 15 15 19 0 53 54 61 96 l6 32 584 7
c596 8 615 7 741 -22 40 -9 76 -14 79 -10 8 7 -22 59 -82 144 l-45 63 -827 -6
c-455 -3 -842 -7 -859 -10 -28 -4 -33 -9 -33 -32 0 -53 20 -103 46 -112 25
-10 33 -30 12 -30 -9 0 -9 -3 1 -9 11 -7 9 -14 -13 -36 -15 -15 -33 -24 -41
-21 -8 3 -15 1 -15 -4 0 -6 -12 -10 -26 -10 l-27 0 6 108 c6 121 25 179 60
186 12 3 182 8 377 11 602 11 626 21 53 23 l-523 2 0 -330z m1360 200 c0 -5
-2 -10 -4 -10 -3 0 -8 5 -11 10 -3 6 -1 10 4 10 6 0 11 -4 11 -10z m-845 -47
c9 -20 14 -41 11 -47 -2 -6 -7 1 -11 17 -14 53 -72 21 -136 -76 -4 -5 -18 -2
-33 8 -32 22 -20 42 27 47 20 2 31 8 29 16 -1 8 2 11 8 7 5 -3 10 1 10 11 0
13 -6 15 -30 11 -16 -4 -32 -2 -35 3 -3 6 -3 10 2 11 37 3 65 9 80 18 37 21
62 13 78 -26z m-175 -3 c0 -5 -5 -10 -11 -10 -5 0 -7 5 -4 10 3 6 8 10 11 10
2 0 4 -4 4 -10z m1909 -170 c0 -9 -4 -8 -9 5 -5 11 -9 27 -9 35 0 9 4 8 9 -5
5 -11 9 -27 9 -35z m-1777 8 c-6 -6 -15 -8 -19 -4 -4 4 -1 11 7 16 19 12 27 3
12 -12z m-234 0 c-3 -8 -24 -13 -54 -14 -27 -1 -40 1 -29 3 11 3 24 9 30 14
14 14 57 11 53 -3z m21 -44 c-6 -8 -15 -14 -20 -14 -14 0 -11 28 4 33 20 7 29
-4 16 -19z m-42 10 c-3 -3 -12 -4 -19 -1 -8 3 -5 6 6 6 11 1 17 -2 13 -5z m84
-3 c-8 -5 -11 -16 -8 -25 5 -11 1 -16 -13 -16 -11 0 -20 5 -20 10 0 16 23 39
40 39 13 1 13 -1 1 -8z m-78 -48 c-4 -11 -8 -10 -18 4 -10 13 -10 20 -2 25 14
9 27 -10 20 -29z m285 -72 c21 -13 11 -63 -14 -72 -28 -10 -45 2 -48 35 -2 15
-1 24 2 22 2 -3 11 1 19 9 17 17 23 18 41 6z m173 -10 c-7 -5 -11 -17 -9 -27
3 -15 12 -19 41 -18 30 1 35 -2 26 -12 -26 -31 -79 -10 -79 31 0 22 20 49 29
39 3 -3 -1 -9 -8 -13z m1244 11 c6 -4 11 -14 13 -22 2 -11 -2 -10 -12 4 -19
23 -46 14 -46 -14 0 -19 4 -21 33 -15 30 7 31 6 15 -10 -11 -12 -24 -16 -42
-11 -22 5 -26 12 -24 34 3 29 14 42 38 42 8 0 20 -4 25 -8z"/>
<path d="M463 134 c-7 -18 17 -38 31 -24 11 11 1 40 -14 40 -6 0 -13 -7 -17
-16z"/>
<path d="M1262 377 c-27 -28 -28 -47 -4 -47 16 0 72 51 72 65 0 15 -50 2 -68
-18z"/>
<path d="M1327 372 c-33 -35 -34 -42 -3 -42 25 0 83 57 71 69 -4 3 -18 -7 -31
-24 -13 -16 -24 -25 -24 -19 0 5 5 15 12 22 6 6 9 14 7 17 -3 3 -18 -8 -32
-23z"/>
<path d="M1393 370 c-13 -15 -23 -31 -23 -34 0 -10 80 -3 87 7 3 5 9 3 14 -4
7 -11 14 -7 34 16 30 37 31 45 3 45 -13 0 -34 -13 -48 -30 -18 -21 -29 -27
-39 -21 -17 11 -5 31 19 31 10 0 22 5 25 10 4 6 -6 10 -22 9 -18 0 -36 -10
-50 -29z"/>
<path d="M1545 390 c-3 -5 -3 -10 1 -10 3 0 -1 -11 -10 -25 -9 -14 -12 -25 -7
-25 5 0 18 11 29 25 11 14 25 25 31 25 6 0 11 5 11 10 0 6 -11 10 -24 10 -14
0 -28 -4 -31 -10z"/>
<path d="M1601 376 c-26 -27 -27 -46 -3 -46 16 0 72 48 72 62 0 15 -51 3 -69
-16z m29 -11 c-7 -9 -15 -13 -18 -10 -3 2 1 11 8 20 7 9 15 13 18 10 3 -2 -1
-11 -8 -20z"/>
<path d="M1665 370 c-30 -31 -28 -53 2 -29 11 9 14 10 9 2 -4 -7 -3 -13 3 -13
9 0 51 52 51 64 0 17 -40 2 -65 -24z"/>
<path d="M120 375 c-11 -13 -10 -14 4 -9 9 3 16 10 16 15 0 13 -6 11 -20 -6z"/>
<path d="M772 371 c-10 -6 -4 -10 19 -15 35 -7 45 -3 34 13 -7 13 -35 14 -53
2z"/>
<path d="M918 363 c7 -3 16 -2 19 1 4 3 -2 6 -13 5 -11 0 -14 -3 -6 -6z"/>
<path d="M315 330 c3 -5 11 -10 16 -10 6 0 7 5 4 10 -3 6 -11 10 -16 10 -6 0
-7 -4 -4 -10z"/>
<path d="M1751 284 c0 -11 3 -14 6 -6 3 7 2 16 -1 19 -3 4 -6 -2 -5 -13z"/>
<path d="M2080 246 c0 -9 7 -16 16 -16 17 0 14 22 -4 28 -7 2 -12 -3 -12 -12z"/>
<path d="M1605 241 c-6 -11 9 -23 19 -14 9 9 7 23 -3 23 -6 0 -12 -4 -16 -9z"/>
<path d="M2190 235 c31 -18 41 -19 34 -2 -2 7 -17 14 -32 15 l-27 1 25 -14z"/>
<path d="M1055 230 c3 -5 10 -10 16 -10 5 0 9 5 9 10 0 6 -7 10 -16 10 -8 0
-12 -4 -9 -10z"/>
<path d="M1330 230 c0 -5 4 -10 9 -10 6 0 13 5 16 10 3 6 -1 10 -9 10 -9 0
-16 -4 -16 -10z"/>
<path d="M2168 193 c6 -2 18 -2 25 0 6 3 1 5 -13 5 -14 0 -19 -2 -12 -5z"/>
<path d="M2090 145 c0 -17 7 -20 50 -22 41 -2 50 1 50 15 0 13 -9 17 -40 17
-22 0 -40 -4 -40 -10 0 -5 -5 -3 -10 5 -8 12 -10 12 -10 -5z"/>
</g>
</svg>
